<svg xmlns="http://www.w3.org/2000/svg" data-name="Layer 1" viewBox="0 0 64 64"><path fill='#fff' d="M47.91 53.91a5.93 5.93 0 0 1-4.24-1.76l-4.32-4.32A2 2 0 0 1 42.17 45l4.33 4.32a2 2 0 0 0 2.82 0 2 2 0 0 0 0-2.82L36.24 33.41a2 2 0 0 1 0-2.82L49.32 17.5a2 2 0 0 0 0-2.82 2 2 0 0 0-2.82 0L33.41 27.76a2 2 0 0 1-2.82 0L17.5 14.68a2 2 0 0 0-2.82 0 2 2 0 0 0 0 2.82l13.08 13.09a2 2 0 0 1 0 2.82L14.68 46.5a2 2 0 0 0 0 2.82 2 2 0 0 0 2.82 0l13.09-13.08a2 2 0 0 1 2.82 0l2.44 2.44A2 2 0 0 1 33 41.51l-1-1-11.67 11.64a6 6 0 1 1-8.48-8.48L23.51 32 11.85 20.33a6 6 0 1 1 8.48-8.48L32 23.51l11.67-11.66a6 6 0 1 1 8.48 8.48L40.49 32l11.66 11.67a6 6 0 0 1-4.24 10.24Z"/></svg>