<svg xmlns="http://www.w3.org/2000/svg" data-name="Layer 1" viewBox="0 0 64 64"><path d="M54.39 56.39H21.07a2 2 0 0 1 0-4h31.32V11.61H11.61v40.78h1.87a2 2 0 1 1 0 4H9.61a2 2 0 0 1-2-2V9.61a2 2 0 0 1 2-2h44.78a2 2 0 0 1 2 2v44.78a2 2 0 0 1-2 2Z"/><path d="M54.26 39.7a2 2 0 0 1-1.39-.56l-1.74-1.68a2 2 0 0 1 2.79-2.88l1.73 1.68a2 2 0 0 1 .05 2.83 2 2 0 0 1-1.44.61zm-22.17 3.64h-.3a2 2 0 0 1-1.41-1l-5.31-8.74-14.44 8.08a2 2 0 0 1-2-3.49l16.13-9a2 2 0 0 1 2.69.71l5.06 8.36 11.7-10.43a2 2 0 0 1 2.72.06l2.76 2.67A2 2 0 0 1 47 33.41L45.53 32 33.42 42.83a2 2 0 0 1-1.33.51zM20.91 27.71a6.34 6.34 0 1 1 6.34-6.33 6.35 6.35 0 0 1-6.34 6.33zm0-8.67a2.34 2.34 0 1 0 2.34 2.34A2.34 2.34 0 0 0 20.91 19z"/></svg>