<?xml version="1.0" standalone="no"?>
<!DOCTYPE svg PUBLIC "-//W3C//DTD SVG 20010904//EN"
 "http://www.w3.org/TR/2001/REC-SVG-20010904/DTD/svg10.dtd">
<svg version="1.0" xmlns="http://www.w3.org/2000/svg"
 width="40" viewBox="0 0 500.000000 500.000000"
 preserveAspectRatio="xMidYMid meet">

<g transform="translate(0.000000,500.000000) scale(0.100000,-0.100000)"
fill="#000000" stroke="none">
<path d="M1980 4297 c-14 -7 -33 -28 -42 -47 -17 -32 -18 -83 -18 -622 0 -357
4 -597 10 -612 l10 -26 554 0 555 0 15 22 c14 20 16 93 16 598 0 316 -5 593
-10 614 -5 21 -18 48 -30 60 -20 21 -28 21 -528 23 -393 2 -513 0 -532 -10z"/>
<path d="M721 2406 c-51 -28 -50 -18 -51 -664 0 -397 4 -610 10 -623 11 -19
41 -19 1820 -19 l1810 0 0 639 0 640 -26 20 -27 21 -1756 0 c-1438 -1 -1760
-3 -1780 -14z"/>
</g>
</svg>
