<svg xmlns="http://www.w3.org/2000/svg" data-name="Layer 1" viewBox="0 0 64 64"><path d="M41 59.06H7.5a2 2 0 0 1-2-2V46.78a2 2 0 0 1 2-2h46.11a2 2 0 0 1 0 4H9.5v6.28H41a2 2 0 0 1 0 4Z"/><path d="M56.5 59.06h-4.77a2 2 0 1 1 0-4h2.77v-6.28h-1.64a2 2 0 0 1 0-4h3.64a2 2 0 0 1 2 2v10.28a2 2 0 0 1-2 2zM43.06 20a2 2 0 0 1-1.41-.59L32 9.77l-9.65 9.64a2 2 0 0 1-2.83-2.83L30.59 5.52a2 2 0 0 1 2.82 0l11.07 11.06a2 2 0 0 1 0 2.83 2 2 0 0 1-1.42.59z"/><path d="M32 40a2 2 0 0 1-2-2V6.94a2 2 0 1 1 4 0V38a2 2 0 0 1-2 2Z"/></svg>